# xmcd CD database file
#
# Track frame offsets:
#	150
#	28492
#	44280
#	77760
#	94432
#	117932
#	142532
#	163609
#
# Disc length: 2368 seconds
#
# Revision: 2
# Processed by: cddbd v1.4PL0 Copyright (c) Steve Scherf et al.
# Submitted via: CDex 1.51
#
DISCID=63093e08
DTITLE=Instruments - Espiritu de Los Andes
DYEAR=1900
DGENRE=Instrumental
TTITLE0=Sicuris
TTITLE1=El Humahuaqueno
TTITLE2=Aires
TTITLE3=Manbo de Machaguay
TTITLE4=Volver a Los 17
TTITLE5=El Condor Pasa
TTITLE6=La Colegiala
TTITLE7=Ojos Azules
EXTD=
EXTT0=
EXTT1=
EXTT2=
EXTT3=
EXTT4=
EXTT5=
EXTT6=
EXTT7=
PLAYORDER=
